<?xml version="1.0" encoding="utf-8"?>

<!-- License Agreement at http://iconmonstr.com/license/ -->

<!DOCTYPE svg PUBLIC "-//W3C//DTD SVG 1.1//EN" "http://www.w3.org/Graphics/SVG/1.1/DTD/svg11.dtd">
<svg version="1.1" xmlns="http://www.w3.org/2000/svg" xmlns:xlink="http://www.w3.org/1999/xlink" x="0px" y="0px"
	 width="114px" height="114px" viewBox="0 0 512 512" style="enable-background:new 0 0 114 114;" xml:space="preserve">
<path style="fill:#F8981C" id="sun-logo" d="M256,85.333c94.651,0,171.666,77.007,171.666,171.667c0,94.651-77.015,171.667-171.666,171.667
	S84.333,351.651,84.333,257C84.333,162.34,161.349,85.333,256,85.333z M256,51C142.237,51,50,143.229,50,257
	c0,113.763,92.237,206,206,206s206-92.237,206-206C462,143.229,369.763,51,256,51z M307.5,257c0,28.433-23.051,51.5-51.5,51.5
	s-51.5-23.067-51.5-51.5c0-28.44,23.051-51.5,51.5-51.5S307.5,228.56,307.5,257z M256,171.167c5.885,0,11.617,0.604,17.166,1.727
	v-53.227h-34.333v53.227C244.382,171.771,250.116,171.167,256,171.167z M208.708,185.442l-37.687-37.687l-24.274,24.275
	l37.686,37.686C190.82,200.077,199.068,191.82,208.708,185.442z M170.167,257c0-5.884,0.604-11.618,1.727-17.167h-53.227v34.333
	h53.227C170.77,268.617,170.167,262.885,170.167,257z M327.566,209.716l37.687-37.686l-24.274-24.275l-37.687,37.687
	C312.932,191.82,321.18,200.077,327.566,209.716z M340.106,239.833c1.124,5.549,1.728,11.282,1.728,17.167
	c0,5.885-0.604,11.617-1.728,17.167h53.228v-34.333H340.106z M303.292,328.551l37.687,37.686l24.274-24.274l-37.687-37.687
	C321.18,313.932,312.932,322.18,303.292,328.551z M184.433,304.275l-37.686,37.687l24.274,24.274l37.687-37.686
	C199.068,322.18,190.82,313.932,184.433,304.275z M256,342.834c-5.884,0-11.618-0.604-17.167-1.727v53.227h34.333v-53.227
	C267.617,342.23,261.885,342.834,256,342.834z"/>
</svg>
